<svg xmlns="http://www.w3.org/2000/svg" viewBox="0 0 500 500"><g id="freepik--background-complete--inject-1"><rect y="382.4" width="500" height="0.25" style="fill:#e6e6e6"></rect><rect x="91.7" y="397.53" width="33.12" height="0.25" style="fill:#e6e6e6"></rect><rect x="62.03" y="397.53" width="19.19" height="0.25" style="fill:#e6e6e6"></rect><rect x="191.36" y="401.21" width="19.19" height="0.25" style="fill:#e6e6e6"></rect><rect x="267.42" y="406.79" width="43.19" height="0.25" style="fill:#e6e6e6"></rect><rect x="252.19" y="406.79" width="6.33" height="0.25" style="fill:#e6e6e6"></rect><rect x="359.67" y="401.21" width="93.68" height="0.25" style="fill:#e6e6e6"></rect><path d="M237,337.8H43.91a5.71,5.71,0,0,1-5.7-5.71V60.66A5.71,5.71,0,0,1,43.91,55H237a5.71,5.71,0,0,1,5.71,5.71V332.09A5.71,5.71,0,0,1,237,337.8ZM43.91,55.2a5.46,5.46,0,0,0-5.45,5.46V332.09a5.46,5.46,0,0,0,5.45,5.46H237a5.47,5.47,0,0,0,5.46-5.46V60.66A5.47,5.47,0,0,0,237,55.2Z" style="fill:#e6e6e6"></path><path d="M453.31,337.8H260.21a5.72,5.72,0,0,1-5.71-5.71V60.66A5.72,5.72,0,0,1,260.21,55h193.1A5.71,5.71,0,0,1,459,60.66V332.09A5.71,5.71,0,0,1,453.31,337.8ZM260.21,55.2a5.47,5.47,0,0,0-5.46,5.46V332.09a5.47,5.47,0,0,0,5.46,5.46h193.1a5.47,5.47,0,0,0,5.46-5.46V60.66a5.47,5.47,0,0,0-5.46-5.46Z" style="fill:#e6e6e6"></path><rect x="245.41" y="296.98" width="21.99" height="87.23" style="fill:#e0e0e0"></rect><polygon points="263.22 384.21 267.4 384.21 267.4 372.33 258.84 372.33 263.22 384.21" style="fill:#fafafa"></polygon><rect x="149.05" y="296.98" width="21.99" height="87.23" style="fill:#e0e0e0"></rect><rect x="167.4" y="296.98" width="100" height="79.94" style="fill:#fafafa"></rect><path d="M263.77,300.91v21.15H171V300.91h92.74m.39-.39H170.64v21.92h93.52V300.52Z" style="fill:#e0e0e0"></path><polygon points="171.57 384.21 167.4 384.21 167.4 372.33 175.95 372.33 171.57 384.21" style="fill:#fafafa"></polygon><path d="M215.19,311.48a2.21,2.21,0,1,0,2.21-2.21A2.21,2.21,0,0,0,215.19,311.48Z" style="fill:#e6e6e6"></path><path d="M263.77,326.37v21.15H171V326.37h92.74m.39-.38H170.64v21.92h93.52V326Z" style="fill:#e0e0e0"></path><path d="M215.19,337a2.21,2.21,0,1,0,2.21-2.21A2.21,2.21,0,0,0,215.19,337Z" style="fill:#e6e6e6"></path><path d="M263.77,351.84V373H171V351.84h92.74m.39-.39H170.64v21.93h93.52V351.45Z" style="fill:#e0e0e0"></path><path d="M215.19,362.42a2.21,2.21,0,1,0,2.21-2.22A2.21,2.21,0,0,0,215.19,362.42Z" style="fill:#e6e6e6"></path><rect x="135.62" y="246.32" width="21.99" height="137.9" style="fill:#e0e0e0"></rect><polygon points="153.43 384.21 157.61 384.21 157.61 372.33 149.06 372.33 153.43 384.21" style="fill:#fafafa"></polygon><rect x="53.44" y="246.32" width="21.99" height="137.9" style="fill:#e0e0e0"></rect><rect x="71.78" y="246.32" width="85.83" height="130.61" style="fill:#fafafa"></rect><path d="M153.91,250v29.57H75.48V250h78.43m.46-.45H75V280h79.35V249.56Z" style="fill:#e0e0e0"></path><path d="M153.91,283.18v78.43H116.55V283.18h37.36m.46-.46H116.1v79.35h38.27V282.72Z" style="fill:#e0e0e0"></path><path d="M112.84,283.18v78.43H75.48V283.18h37.36m.45-.46H75v79.35h38.27V282.72Z" style="fill:#e0e0e0"></path><polygon points="75.96 384.21 71.78 384.21 71.78 372.33 80.34 372.33 75.96 384.21" style="fill:#fafafa"></polygon><path d="M112.48,264.8a2.22,2.22,0,1,0,2.22-2.21A2.22,2.22,0,0,0,112.48,264.8Z" style="fill:#e6e6e6"></path><path d="M120.4,320.53a2.22,2.22,0,1,0,2.21-2.22A2.21,2.21,0,0,0,120.4,320.53Z" style="fill:#e6e6e6"></path><path d="M104.57,320.53a2.21,2.21,0,1,0,2.21-2.22A2.21,2.21,0,0,0,104.57,320.53Z" style="fill:#e6e6e6"></path><path d="M102.07,207.87H92.8a97.94,97.94,0,0,1,1.61,13.62c0,5-7.06,24.83,3,24.83s3-19.78,3-24.83A97.94,97.94,0,0,1,102.07,207.87Z" style="fill:#e0e0e0"></path><path d="M66.8,228.15v6a12.18,12.18,0,0,0,12.14,12.14h6a12.18,12.18,0,0,0,12.14-12.14v-6Z" style="fill:#f5f5f5"></path><path d="M195.67,284.26c0,7,7.83,12.72,17.4,12.72h8.64c9.57,0,17.4-5.72,17.4-12.72Z" style="fill:#e0e0e0"></path><path d="M424.61,274c-5.24,4.28-12.48,12.11-19.1,23.13-4.42,7.34-7.08,15-8.25,25.18,0-11.5.07-23.85.11-35.51,1.33-3,4.37-9.92,6.55-15.38,7.27-18.23,10-22.72,16.53-38.44,8.73-21,17.67-45.86,15.11-43.87-5.22,4.05-25.22,41.5-27.38,46.86a150,150,0,0,0-10.79,44.85c0-11,.08-21,.12-28.76.14-25.31.57-33.48.78-36,.81-1.28,1.76-2.77,2.32-3.57,4.7-6.8,6.51-12.58,10.93-22.72,6.28-14.35,11.68-39.84,10.1-38.56-6.58,5.36-11.76,16.86-18.58,31.53s-4.87,23.1-6.22,35.62c-.28,2.46-.5,11.74-.66,24.59-1.76-13.7-5.08-22.72-11.13-30.92-7.44-10.09-14.64-16.9-19.92-20.46s9.12,21.22,16,32c6.13,9.64,11.78,18.13,15,26.5-.17,17.43-.25,39.49-.25,60-1.58-9.34-4.16-19.41-7.6-27.2-4.14-9.36-10.5-23.72-15.57-28.59-1.21-1.17,5.3,26.76,9.48,34.18s7.25,14.43,9.88,18.64c.61,1,2.65,4.77,3.81,6.95,0,25.07.14,47.19.36,54.72h1.08c-.07-1.94-.09-14.7-.06-31.58,2.61-9.16,8.57-19.62,13.49-29.16C416.11,297.7,429.85,269.75,424.61,274Z" style="fill:#e0e0e0"></path><polygon points="412.44 384.21 381.1 384.21 378.73 353.49 414.81 353.49 412.44 384.21" style="fill:#f0f0f0"></polygon><polygon points="417.14 357.07 376.39 357.07 375.23 346.7 418.31 346.7 417.14 357.07" style="fill:#f5f5f5"></polygon><rect x="68.21" y="75.5" width="56.05" height="61.55" style="fill:#e0e0e0"></rect><rect x="72.43" y="75.5" width="57.9" height="61.55" style="fill:#f5f5f5"></rect><rect x="75.46" y="82.17" width="51.85" height="48.2" transform="translate(207.65 4.89) rotate(90)" style="fill:#fff"></rect><rect x="88.02" y="93.86" width="26.71" height="24.83" transform="translate(207.65 4.89) rotate(90)" style="fill:#f5f5f5"></rect><rect x="357.98" y="82.67" width="52.07" height="57.18" style="fill:#e0e0e0"></rect><rect x="361.91" y="82.67" width="53.78" height="57.18" style="fill:#f5f5f5"></rect><rect x="364.72" y="88.87" width="48.16" height="44.77" transform="translate(500.06 -277.54) rotate(90)" style="fill:#fff"></rect><circle cx="388.8" cy="111.26" r="13.97" style="fill:#f5f5f5"></circle><rect x="140.91" y="112.2" width="41.58" height="45.66" style="fill:#e0e0e0"></rect><rect x="144.04" y="112.2" width="42.95" height="45.66" style="fill:#f5f5f5"></rect><rect x="146.29" y="117.15" width="38.46" height="35.75" transform="translate(300.54 -30.49) rotate(90)" style="fill:#fff"></rect><polygon points="165.52 125.3 155.74 142.24 175.3 142.24 165.52 125.3" style="fill:#f5f5f5"></polygon></g><g id="freepik--Shadow--inject-1"><ellipse cx="250" cy="416.24" rx="193.89" ry="11.32" style="fill:#f5f5f5"></ellipse></g><g id="freepik--Screen--inject-1"><rect x="238.49" y="70.57" width="6.39" height="1.03" style="fill:#111A41"></rect><rect x="319.14" y="119.42" width="17.18" height="1.03" transform="translate(193.16 441.94) rotate(-87.42)" style="fill:#111A41"></rect><polygon points="325.61 75.19 207.61 75.19 196.63 320.91 314.63 320.91 325.61 75.19" style="fill:#111A41"></polygon><polygon points="322.09 78.57 204.09 78.57 193.11 324.29 311.11 324.29 322.09 78.57" style="fill:#fafafa;opacity:0.56"></polygon><polygon points="318.57 81.94 200.57 81.94 189.58 327.66 307.58 327.66 318.57 81.94" style="fill:#111A41;opacity:0.07"></polygon><polygon points="305.14 189.11 204.42 189.11 203.58 207.91 304.3 207.91 305.14 189.11" style="fill:#fff"></polygon><polygon points="259.81 175.39 205.03 175.39 204.66 183.8 259.44 183.8 259.81 175.39" style="fill:#111A41"></polygon><polygon points="302.87 239.85 202.15 239.85 201.31 258.65 302.03 258.65 302.87 239.85" style="fill:#fff"></polygon><polygon points="284.4 284.04 216.67 284.04 215.66 306.57 283.39 306.57 284.4 284.04" style="fill:#111A41;opacity:0.47000000000000003"></polygon><path d="M279.87,310.07H212.14a.18.18,0,0,1-.09,0,.14.14,0,0,1,0-.09l1-22.54a.11.11,0,0,1,.12-.11h67.73a.09.09,0,0,1,.08,0,.08.08,0,0,1,0,.08L280,310A.13.13,0,0,1,279.87,310.07Zm-67.61-.24h67.49l1-22.3H213.26Z" style="fill:#fff"></path><polygon points="247.98 226.13 202.76 226.13 202.39 234.55 247.6 234.55 247.98 226.13" style="fill:#111A41"></polygon><path d="M283.11,128.38a26.53,26.53,0,0,1-5.57,15.05A26.88,26.88,0,0,1,256.34,154a24.31,24.31,0,0,1-24.46-25.62,27,27,0,0,1,26.75-25.62A24.29,24.29,0,0,1,283.11,128.38Z" style="fill:#fff"></path><path d="M285.52,108.12a7,7,0,0,1-1.48,4,7.17,7.17,0,0,1-5.64,2.81,6.48,6.48,0,0,1-5.38-2.81,6.61,6.61,0,0,1-1.12-4,7.18,7.18,0,0,1,7.11-6.8A6.46,6.46,0,0,1,285.52,108.12Z" style="fill:#111A41"></path><path d="M215.27,198.51a3.19,3.19,0,0,1-3.15,3,2.85,2.85,0,0,1-2.88-3,3.17,3.17,0,0,1,3.15-3A2.86,2.86,0,0,1,215.27,198.51Z" style="fill:#263238"></path><path d="M228.75,198.51a3.18,3.18,0,0,1-3.15,3,2.85,2.85,0,0,1-2.87-3,3.17,3.17,0,0,1,3.14-3A2.85,2.85,0,0,1,228.75,198.51Z" style="fill:#263238"></path><path d="M242.24,198.51a3.18,3.18,0,0,1-3.15,3,2.86,2.86,0,0,1-2.88-3,3.18,3.18,0,0,1,3.15-3A2.85,2.85,0,0,1,242.24,198.51Z" style="fill:#263238"></path><path d="M213,249.25a3.19,3.19,0,0,1-3.15,3,2.86,2.86,0,0,1-2.88-3,3.18,3.18,0,0,1,3.15-3A2.86,2.86,0,0,1,213,249.25Z" style="fill:#263238"></path><path d="M226.48,249.25a3.18,3.18,0,0,1-3.14,3,2.85,2.85,0,0,1-2.88-3,3.18,3.18,0,0,1,3.15-3A2.85,2.85,0,0,1,226.48,249.25Z" style="fill:#263238"></path><path d="M240,249.25a3.18,3.18,0,0,1-3.15,3,2.87,2.87,0,0,1-2.88-3,3.19,3.19,0,0,1,3.15-3A2.85,2.85,0,0,1,240,249.25Z" style="fill:#263238"></path><path d="M253.46,249.25a3.19,3.19,0,0,1-3.15,3,2.87,2.87,0,0,1-2.88-3,3.19,3.19,0,0,1,3.15-3A2.86,2.86,0,0,1,253.46,249.25Z" style="fill:#263238"></path><path d="M267,249.25a3.19,3.19,0,0,1-3.15,3,2.85,2.85,0,0,1-2.88-3,3.18,3.18,0,0,1,3.15-3A2.86,2.86,0,0,1,267,249.25Z" style="fill:#263238"></path><ellipse cx="257.87" cy="119.82" rx="10.6" ry="10.13" transform="translate(-10.27 214.43) rotate(-44.36)" style="fill:#111A41"></ellipse><path d="M277.54,143.43A26.88,26.88,0,0,1,256.34,154a24.27,24.27,0,0,1-20.24-10.57c4.86-4.84,12.55-8,21.07-8S273.11,138.59,277.54,143.43Z" style="fill:#111A41"></path><ellipse cx="257.87" cy="119.82" rx="10.6" ry="10.13" transform="translate(-10.27 214.43) rotate(-44.36)" style="fill:#fff;opacity:0.1"></ellipse><path d="M277.54,143.43A26.88,26.88,0,0,1,256.34,154a24.27,24.27,0,0,1-20.24-10.57c4.86-4.84,12.55-8,21.07-8S273.11,138.59,277.54,143.43Z" style="fill:#fff;opacity:0.1"></path></g></svg>