<svg xmlns="http://www.w3.org/2000/svg" viewBox="0 0 500 500"><g id="freepik--background-simple--inject-17"><path d="M356.39,130.86s-40.26-44.11-104-42S134.28,133.71,89.33,167.15s-57,85.38-30.87,125.93,67.77,23.48,120.78,49.8,63.08,41.27,122.13,34.87,104-71.86,97.3-141.59S356.39,130.86,356.39,130.86Z" style="fill:#1F1F55"></path><path d="M356.39,130.86s-40.26-44.11-104-42S134.28,133.71,89.33,167.15s-57,85.38-30.87,125.93,67.77,23.48,120.78,49.8,63.08,41.27,122.13,34.87,104-71.86,97.3-141.59S356.39,130.86,356.39,130.86Z" style="fill:#fff;opacity:0.7000000000000001"></path></g><g id="freepik--Floor--inject-17"><ellipse cx="257.62" cy="392.44" rx="198.52" ry="10.83" style="fill:#1F1F55"></ellipse><ellipse cx="257.62" cy="392.44" rx="198.52" ry="10.83" style="fill:#fff;opacity:0.30000000000000004"></ellipse></g><g id="freepik--Plants--inject-17"><path d="M374.94,229.2c-.06,0,.69-3.73.77-4,.86-2.66,4.1-7.3,7.23-7.29a3.71,3.71,0,0,1,3.57,4.21c-.23,2.21-2.21,4.08-4,5.17C380.41,228.6,374.94,229.2,374.94,229.2Z" style="fill:#1F1F55"></path><path d="M368.87,204.09c2.95,1.06,4.42,6.52,4.32,9.32,0,.24-.56,4-.61,4l-.06,0c.23.86.48,1.79.73,2.8.44,1.88.92,4,1.29,6.36a65.81,65.81,0,0,1,.84,7.65,48.31,48.31,0,0,1-.29,8.6.3.3,0,0,0,0,.1c.39-.83,1.54-3.13,1.65-3.3,1.54-2.34,5.88-6,8.91-5.12a3.71,3.71,0,0,1,2.32,5c-.8,2.06-3.2,3.35-5.21,3.92-2.27.65-7.33-.12-7.73-.18a64.94,64.94,0,0,1-1.86,8.56q-.7,2.46-1.52,4.92c.35-.71.68-1.34.73-1.43,1.54-2.34,5.88-6,8.91-5.13a3.7,3.7,0,0,1,2.32,5c-.8,2.07-3.2,3.35-5.21,3.93s-6.37,0-7.51-.15c-.21.62-.42,1.25-.64,1.87-1,3-2.08,6-3,8.94-.33,1-.62,2.08-.91,3.12.32-.63.59-1.16.64-1.23,1.53-2.34,5.88-6,8.9-5.13a3.72,3.72,0,0,1,2.33,5c-.8,2.06-3.21,3.35-5.22,3.92s-5.94.07-7.3-.12c-.27,1.08-.53,2.15-.74,3.2-.13.72-.3,1.41-.39,2.14s-.2,1.44-.3,2.14c-.14,1.37-.3,2.79-.4,4.13-.08.93-.14,1.82-.2,2.71.31-1,1-3.06,1.05-3.23a14.5,14.5,0,0,1,4.8-5.46,3.85,3.85,0,0,1,.41-.71,3.71,3.71,0,0,1,5.45-.86c2.38,2,1.78,7.68.69,10.26-.06.15-.95,1.72-1.52,2.7.43-.52.83-1,1.28-1.58.87-1.06,1.77-2.1,2.73-3.22l1.47-1.59c.48-.55,1.06-1.06,1.59-1.59,1.25-1.21,2.58-2.38,3.95-3.53-.94-.76-4.21-3.53-5.15-5.41s-1.61-4.51-.63-6.49a3.71,3.71,0,0,1,5.27-1.67c2.65,1.66,2.92,7.31,2.23,10,0,.17-.76,2.06-1.17,3.09.83-.68,1.65-1.37,2.51-2,2.48-1.92,5.05-3.78,7.6-5.65l2.33-1.73c-.33-.27-4.29-3.47-5.35-5.57-.93-1.87-1.61-4.51-.63-6.5a3.72,3.72,0,0,1,5.27-1.67c2.65,1.67,2.92,7.32,2.23,10-.05.21-1.08,2.93-1.38,3.61,1.71-1.28,3.4-2.56,5-3.89a64.73,64.73,0,0,0,6.2-5.78c-.15-.12-4.3-3.44-5.38-5.6-.94-1.87-1.61-4.51-.63-6.49a3.7,3.7,0,0,1,5.26-1.67c2.66,1.66,2.93,7.31,2.24,10-.05.17-.83,2.25-1.23,3.23l.16.09a47.88,47.88,0,0,0,5.09-6.84c.83-1.32,1.56-2.63,2.24-3.93-.84-.54-4.63-3-5.82-4.88s-2.09-4.3-1.34-6.38a3.71,3.71,0,0,1,5-2.24c2.83,1.36,3.71,6.95,3.32,9.72,0,.15-.4,1.66-.69,2.76.29-.59.61-1.19.88-1.76,1-2.14,1.85-4.16,2.55-6,.4-1,.73-2,1-2.83-.55-1-2.69-4.85-2.9-7s.13-4.79,1.76-6.29a3.71,3.71,0,0,1,5.51.35c1.88,2.51.09,7.87-1.53,10.16-.14.19-2.69,3-2.72,3l0-.06c-.28.85-.58,1.76-.94,2.74-.66,1.81-1.44,3.86-2.42,6a66.87,66.87,0,0,1-3.53,6.84,48.53,48.53,0,0,1-5,7l-.07.08c.78-.49,3-1.76,3.19-1.84,2.58-1.1,8.2-1.73,10.26.64a3.72,3.72,0,0,1-.82,5.46c-1.81,1.28-4.53,1-6.52.39-2.25-.71-6-4.14-6.35-4.41a64.86,64.86,0,0,1-6.27,6.11c-1.3,1.12-2.63,2.2-4,3.26.69-.39,1.31-.74,1.4-.78,2.57-1.1,8.19-1.73,10.25.64a3.71,3.71,0,0,1-.82,5.46c-1.8,1.28-4.52,1-6.51.39s-5.32-3.49-6.18-4.26l-1.57,1.21c-2.52,1.93-5,3.84-7.45,5.79-.85.69-1.66,1.4-2.48,2.1.62-.35,1.13-.64,1.22-.67,2.57-1.11,8.19-1.73,10.25.63a3.7,3.7,0,0,1-.82,5.46c-1.81,1.28-4.52,1-6.51.4s-5-3.22-6-4.13c-.81.75-1.63,1.49-2.38,2.26-.51.53-1,1-1.5,1.57s-1,1.08-1.44,1.62c-.87,1.06-1.78,2.16-2.61,3.22-.58.73-1.12,1.44-1.66,2.15.83-.69,2.51-2,2.66-2.11,2.37-1.48,7.83-2.95,10.23-.93a3.72,3.72,0,0,1,0,5.53c-1.59,1.53-4.31,1.7-6.37,1.38-2.28-.36-6.4-3-6.91-3.38-.9,1.18-1.76,2.34-2.56,3.45-2.77,3.83-4.93,7.12-6.41,9.45l-.15.23-1.92-.93c.1-.15.2-.29.3-.45,1.55-2.32,3.81-5.6,6.69-9.41.91-1.2,1.9-2.47,2.93-3.77a40,40,0,0,1-3-3.68c-2.21.86-6.8.9-7.39.9-.09,1.48-.17,2.92-.23,4.28-.2,4.73-.18,8.67-.13,11.42v.33l-2.11-1c0-2.73.11-6.44.39-10.81.09-1.51.22-3.12.37-4.76-.59-.15-5.36-1.38-7.16-2.82-1.63-1.3-3.35-3.42-3.29-5.63a3.7,3.7,0,0,1,4.08-3.72c3.11.4,5.71,5.42,6.23,8.17,0,.16.16,2,.22,3.1.07-.68.12-1.33.19-2,.14-1.37.32-2.74.51-4.21.11-.7.23-1.41.34-2.13s.3-1.46.45-2.2c.38-1.7.84-3.41,1.35-5.12-1.2-.13-5.45-.63-7.28-1.67s-3.83-2.88-4.1-5.07a3.7,3.7,0,0,1,3.47-4.3c3.13-.08,6.47,4.49,7.39,7.13.06.17.51,2.14.73,3.23.32-1,.62-2.06,1-3.08,1-3,2.13-5.94,3.23-8.91.34-.91.66-1.82,1-2.72-.43,0-5.5-.53-7.54-1.7-1.81-1-3.83-2.88-4.11-5.07a3.72,3.72,0,0,1,3.47-4.3c3.14-.08,6.48,4.49,7.4,7.13.07.2.71,3,.84,3.77.72-2,1.43-4,2-6a64.85,64.85,0,0,0,2-8.24c-.2,0-5.5-.5-7.58-1.7-1.82-1-3.84-2.88-4.11-5.07a3.72,3.72,0,0,1,3.47-4.3c3.13-.07,6.47,4.49,7.39,7.13.06.18.55,2.34.76,3.37h.18a47.86,47.86,0,0,0,.48-8.51c0-1.57-.15-3.06-.3-4.52-1,0-5.54,0-7.54-.86s-4.13-2.44-4.65-4.59a3.71,3.71,0,0,1,3-4.65c3.11-.42,6.93,3.75,8.14,6.28.06.14.58,1.61.93,2.68-.07-.65-.14-1.33-.23-1.95-.31-2.35-.75-4.49-1.15-6.37-.24-1.07-.47-2-.7-2.93-1-.5-4.92-2.56-6.27-4.23s-2.53-4.06-2-6.21A3.71,3.71,0,0,1,368.87,204.09Z" style="fill:#1F1F55"></path><path d="M425.55,252.42c-2.45-.1-7.35-2.61-7.35-2.62s2.63-2.72,2.82-2.87c2.19-1.75,7.45-3.83,10.06-2.1a3.72,3.72,0,0,1,.65,5.49C430.33,252,427.64,252.5,425.55,252.42Z" style="fill:#1F1F55"></path><g style="opacity:0.5"><path d="M374.94,229.2c-.06,0,.69-3.73.77-4,.86-2.66,4.1-7.3,7.23-7.29a3.71,3.71,0,0,1,3.57,4.21c-.23,2.21-2.21,4.08-4,5.17C380.41,228.6,374.94,229.2,374.94,229.2Z" style="fill:#fff"></path><path d="M368.87,204.09c2.95,1.06,4.42,6.52,4.32,9.32,0,.24-.56,4-.61,4l-.06,0c.23.86.48,1.79.73,2.8.44,1.88.92,4,1.29,6.36a65.81,65.81,0,0,1,.84,7.65,48.31,48.31,0,0,1-.29,8.6.3.3,0,0,0,0,.1c.39-.83,1.54-3.13,1.65-3.3,1.54-2.34,5.88-6,8.91-5.12a3.71,3.71,0,0,1,2.32,5c-.8,2.06-3.2,3.35-5.21,3.92-2.27.65-7.33-.12-7.73-.18a64.94,64.94,0,0,1-1.86,8.56q-.7,2.46-1.52,4.92c.35-.71.68-1.34.73-1.43,1.54-2.34,5.88-6,8.91-5.13a3.7,3.7,0,0,1,2.32,5c-.8,2.07-3.2,3.35-5.21,3.93s-6.37,0-7.51-.15c-.21.62-.42,1.25-.64,1.87-1,3-2.08,6-3,8.94-.33,1-.62,2.08-.91,3.12.32-.63.59-1.16.64-1.23,1.53-2.34,5.88-6,8.9-5.13a3.72,3.72,0,0,1,2.33,5c-.8,2.06-3.21,3.35-5.22,3.92s-5.94.07-7.3-.12c-.27,1.08-.53,2.15-.74,3.2-.13.72-.3,1.41-.39,2.14s-.2,1.44-.3,2.14c-.14,1.37-.3,2.79-.4,4.13-.08.93-.14,1.82-.2,2.71.31-1,1-3.06,1.05-3.23a14.5,14.5,0,0,1,4.8-5.46,3.85,3.85,0,0,1,.41-.71,3.71,3.71,0,0,1,5.45-.86c2.38,2,1.78,7.68.69,10.26-.06.15-.95,1.72-1.52,2.7.43-.52.83-1,1.28-1.58.87-1.06,1.77-2.1,2.73-3.22l1.47-1.59c.48-.55,1.06-1.06,1.59-1.59,1.25-1.21,2.58-2.38,3.95-3.53-.94-.76-4.21-3.53-5.15-5.41s-1.61-4.51-.63-6.49a3.71,3.71,0,0,1,5.27-1.67c2.65,1.66,2.92,7.31,2.23,10,0,.17-.76,2.06-1.17,3.09.83-.68,1.65-1.37,2.51-2,2.48-1.92,5.05-3.78,7.6-5.65l2.33-1.73c-.33-.27-4.29-3.47-5.35-5.57-.93-1.87-1.61-4.51-.63-6.5a3.72,3.72,0,0,1,5.27-1.67c2.65,1.67,2.92,7.32,2.23,10-.05.21-1.08,2.93-1.38,3.61,1.71-1.28,3.4-2.56,5-3.89a64.73,64.73,0,0,0,6.2-5.78c-.15-.12-4.3-3.44-5.38-5.6-.94-1.87-1.61-4.51-.63-6.49a3.7,3.7,0,0,1,5.26-1.67c2.66,1.66,2.93,7.31,2.24,10-.05.17-.83,2.25-1.23,3.23l.16.09a47.88,47.88,0,0,0,5.09-6.84c.83-1.32,1.56-2.63,2.24-3.93-.84-.54-4.63-3-5.82-4.88s-2.09-4.3-1.34-6.38a3.71,3.71,0,0,1,5-2.24c2.83,1.36,3.71,6.95,3.32,9.72,0,.15-.4,1.66-.69,2.76.29-.59.61-1.19.88-1.76,1-2.14,1.85-4.16,2.55-6,.4-1,.73-2,1-2.83-.55-1-2.69-4.85-2.9-7s.13-4.79,1.76-6.29a3.71,3.71,0,0,1,5.51.35c1.88,2.51.09,7.87-1.53,10.16-.14.19-2.69,3-2.72,3l0-.06c-.28.85-.58,1.76-.94,2.74-.66,1.81-1.44,3.86-2.42,6a66.87,66.87,0,0,1-3.53,6.84,48.53,48.53,0,0,1-5,7l-.07.08c.78-.49,3-1.76,3.19-1.84,2.58-1.1,8.2-1.73,10.26.64a3.72,3.72,0,0,1-.82,5.46c-1.81,1.28-4.53,1-6.52.39-2.25-.71-6-4.14-6.35-4.41a64.86,64.86,0,0,1-6.27,6.11c-1.3,1.12-2.63,2.2-4,3.26.69-.39,1.31-.74,1.4-.78,2.57-1.1,8.19-1.73,10.25.64a3.71,3.71,0,0,1-.82,5.46c-1.8,1.28-4.52,1-6.51.39s-5.32-3.49-6.18-4.26l-1.57,1.21c-2.52,1.93-5,3.84-7.45,5.79-.85.69-1.66,1.4-2.48,2.1.62-.35,1.13-.64,1.22-.67,2.57-1.11,8.19-1.73,10.25.63a3.7,3.7,0,0,1-.82,5.46c-1.81,1.28-4.52,1-6.51.4s-5-3.22-6-4.13c-.81.75-1.63,1.49-2.38,2.26-.51.53-1,1-1.5,1.57s-1,1.08-1.44,1.62c-.87,1.06-1.78,2.16-2.61,3.22-.58.73-1.12,1.44-1.66,2.15.83-.69,2.51-2,2.66-2.11,2.37-1.48,7.83-2.95,10.23-.93a3.72,3.72,0,0,1,0,5.53c-1.59,1.53-4.31,1.7-6.37,1.38-2.28-.36-6.4-3-6.91-3.38-.9,1.18-1.76,2.34-2.56,3.45-2.77,3.83-4.93,7.12-6.41,9.45l-.15.23-1.92-.93c.1-.15.2-.29.3-.45,1.55-2.32,3.81-5.6,6.69-9.41.91-1.2,1.9-2.47,2.93-3.77a40,40,0,0,1-3-3.68c-2.21.86-6.8.9-7.39.9-.09,1.48-.17,2.92-.23,4.28-.2,4.73-.18,8.67-.13,11.42v.33l-2.11-1c0-2.73.11-6.44.39-10.81.09-1.51.22-3.12.37-4.76-.59-.15-5.36-1.38-7.16-2.82-1.63-1.3-3.35-3.42-3.29-5.63a3.7,3.7,0,0,1,4.08-3.72c3.11.4,5.71,5.42,6.23,8.17,0,.16.16,2,.22,3.1.07-.68.12-1.33.19-2,.14-1.37.32-2.74.51-4.21.11-.7.23-1.41.34-2.13s.3-1.46.45-2.2c.38-1.7.84-3.41,1.35-5.12-1.2-.13-5.45-.63-7.28-1.67s-3.83-2.88-4.1-5.07a3.7,3.7,0,0,1,3.47-4.3c3.13-.08,6.47,4.49,7.39,7.13.06.17.51,2.14.73,3.23.32-1,.62-2.06,1-3.08,1-3,2.13-5.94,3.23-8.91.34-.91.66-1.82,1-2.72-.43,0-5.5-.53-7.54-1.7-1.81-1-3.83-2.88-4.11-5.07a3.72,3.72,0,0,1,3.47-4.3c3.14-.08,6.48,4.49,7.4,7.13.07.2.71,3,.84,3.77.72-2,1.43-4,2-6a64.85,64.85,0,0,0,2-8.24c-.2,0-5.5-.5-7.58-1.7-1.82-1-3.84-2.88-4.11-5.07a3.72,3.72,0,0,1,3.47-4.3c3.13-.07,6.47,4.49,7.39,7.13.06.18.55,2.34.76,3.37h.18a47.86,47.86,0,0,0,.48-8.51c0-1.57-.15-3.06-.3-4.52-1,0-5.54,0-7.54-.86s-4.13-2.44-4.65-4.59a3.71,3.71,0,0,1,3-4.65c3.11-.42,6.93,3.75,8.14,6.28.06.14.58,1.61.93,2.68-.07-.65-.14-1.33-.23-1.95-.31-2.35-.75-4.49-1.15-6.37-.24-1.07-.47-2-.7-2.93-1-.5-4.92-2.56-6.27-4.23s-2.53-4.06-2-6.21A3.71,3.71,0,0,1,368.87,204.09Z" style="fill:#fff"></path><path d="M425.55,252.42c-2.45-.1-7.35-2.61-7.35-2.62s2.63-2.72,2.82-2.87c2.19-1.75,7.45-3.83,10.06-2.1a3.72,3.72,0,0,1,.65,5.49C430.33,252,427.64,252.5,425.55,252.42Z" style="fill:#fff"></path></g><path d="M396.94,313.78s-14.87-35.85-23.19-34.29S388,336.63,388,336.63s-26.16-49.35-44-49.35,6.54,54.55,29.13,72.73c0,0-35.67-38.44-56.48-30.13s41.62,47.27,41.62,47.27-36.27-11.43-32.11-2.6,15.46,10.39,15.46,10.39l-41,2.08H443.32l-32.11-3.12s33.3-16.62,24.38-23.37-28.54,7.79-28.54,7.79,33.89-37.4,27.35-51.43-35.68,25.46-35.68,25.46,23.79-50.39,19-59.22S396.94,313.78,396.94,313.78Z" style="fill:#1F1F55"></path><path d="M396.94,313.78s-14.87-35.85-23.19-34.29S388,336.63,388,336.63s-26.16-49.35-44-49.35,6.54,54.55,29.13,72.73c0,0-35.67-38.44-56.48-30.13s41.62,47.27,41.62,47.27-36.27-11.43-32.11-2.6,15.46,10.39,15.46,10.39l-41,2.08H443.32l-32.11-3.12s33.3-16.62,24.38-23.37-28.54,7.79-28.54,7.79,33.89-37.4,27.35-51.43-35.68,25.46-35.68,25.46,23.79-50.39,19-59.22S396.94,313.78,396.94,313.78Z" style="fill:#fff;opacity:0.4"></path><path d="M401.7,315.66c-13.09,38.65-13.09,66-13.09,66s15.46.59,31.52-11.3" style="fill:none;stroke:#263238;stroke-linecap:round;stroke-linejoin:round"></path><path d="M395.16,336.48a232.51,232.51,0,0,0-10.71-33.9" style="fill:none;stroke:#263238;stroke-linecap:round;stroke-linejoin:round"></path><path d="M356.51,313.88l33.29,49.35s22.6-19,30.33-29.73" style="fill:none;stroke:#263238;stroke-linecap:round;stroke-linejoin:round"></path><path d="M389.21,375.13S354.13,358.48,339.86,349" style="fill:none;stroke:#263238;stroke-linecap:round;stroke-linejoin:round"></path></g><g id="freepik--Device--inject-17"><rect x="242.96" y="109" width="122.68" height="278.02" rx="7.92" style="fill:#fff;stroke:#263238;stroke-linecap:round;stroke-linejoin:round"></rect><path d="M361.54,157.67a1.63,1.63,0,0,1-1.63-1.63V134.19a1.64,1.64,0,0,1,3.27,0V156A1.64,1.64,0,0,1,361.54,157.67Z" style="fill:#263238"></path><path d="M361.54,177.91a1.63,1.63,0,0,1-1.63-1.63V164.07a1.64,1.64,0,0,1,3.27,0v12.21A1.64,1.64,0,0,1,361.54,177.91Z" style="fill:#263238"></path><rect x="233.71" y="109" width="122.68" height="278.02" rx="7.92" style="fill:#263238;stroke:#263238;stroke-linecap:round;stroke-linejoin:round"></rect><rect x="241.88" y="127.51" width="106.34" height="238.46" style="fill:#1F1F55"></rect><line x1="279.26" y1="119.89" x2="307.57" y2="119.89" style="fill:none;stroke:#fff;stroke-linecap:round;stroke-linejoin:round;stroke-width:3px"></line><path d="M291.24,374.41c0,1.95-1.22,3.53-2.73,3.53s-2.72-1.58-2.72-3.53,1.22-3.54,2.72-3.54S291.24,372.45,291.24,374.41Z" style="fill:#fff"></path><ellipse cx="295.05" cy="165.35" rx="18.44" ry="21.5" style="fill:#fff"></ellipse><ellipse cx="295.05" cy="156.91" rx="7" ry="8.17" style="fill:#263238;stroke:#263238;stroke-linecap:round;stroke-linejoin:round"></ellipse><path d="M295.05,167.25c-7,0-12.73,5.37-12.73,12a11.14,11.14,0,0,0,.17,1.84,16.54,16.54,0,0,0,25.12,0,12.34,12.34,0,0,0,.16-1.84C307.77,172.62,302.07,167.25,295.05,167.25Z" style="fill:#263238;stroke:#263238;stroke-linecap:round;stroke-linejoin:round"></path><path d="M317.47,259H272.63a4.48,4.48,0,0,1-4.3-4.65V226.67c0-15.95,12-28.93,26.72-28.93s26.71,13,26.71,28.93v27.66A4.48,4.48,0,0,1,317.47,259Zm-40.55-9.3h36.25v-23c0-10.82-8.13-19.63-18.12-19.63s-18.13,8.81-18.13,19.63Z" style="fill:#263238"></path><rect x="263.92" y="240.11" width="62.26" height="58.9" style="fill:#fff"></rect><path d="M304.12,280.66l-4.62-11.11a8.19,8.19,0,0,0,3.25-6.62c0-4.43-3.31-8-7.4-8s-7.39,3.58-7.39,8a8.18,8.18,0,0,0,3.24,6.62l-4.61,11.11Z" style="fill:#263238;stroke:#263238;stroke-linecap:round;stroke-linejoin:round"></path><path d="M276.08,351.94a.57.57,0,0,0,.33.11.52.52,0,0,0,.43-.23l71.38-97.09v-1.84L276,351.18A.54.54,0,0,0,276.08,351.94Z" style="fill:#fff"></path><path d="M333.86,162.49a.54.54,0,0,0,.12.76.55.55,0,0,0,.76-.12l13.48-18.33V143Z" style="fill:#fff"></path><path d="M241.88,289.46,330,169.63a.54.54,0,0,0-.88-.64l-87.2,118.63Z" style="fill:#fff"></path><path d="M267.8,363.76a.57.57,0,0,0,.44-.22l5-6.76a.54.54,0,0,0-.12-.76.55.55,0,0,0-.76.12l-5,6.75a.54.54,0,0,0,.11.76A.51.51,0,0,0,267.8,363.76Z" style="fill:#fff"></path><path d="M348.22,274.17l-58.6,79.71a.54.54,0,0,0,.44.86.53.53,0,0,0,.44-.22L348.22,276Z" style="fill:#fff"></path></g></svg>